<svg xmlns="http://www.w3.org/2000/svg"><symbol fill="currentColor" class="sc-kAyceB bxaZdP" id="arrow-down" viewBox="0 0 1152 1792"><title>arrow-down</title><path fill="inherit" d="M1075 736q0 13-10 23l-466 466q-10 10-23 10t-23-10L87 759q-10-10-10-23t10-23l50-50q10-10 23-10t23 10l393 393 393-393q10-10 23-10t23 10l50 50q10 10 10 23z"/></symbol><symbol id="caret-down" viewBox="0 0 16 28"><title>caret-down</title><path fill="currentColor" d="M16 11a.99.99 0 0 1-.297.703l-7 7C8.516 18.89 8.265 19 8 19s-.516-.109-.703-.297l-7-7A.996.996 0 0 1 0 11c0-.547.453-1 1-1h14c.547 0 1 .453 1 1z"/></symbol><symbol fill="#292828" class="icon line-color" id="check-mark-circle" viewBox="0 0 24 24"><title>check-mark-circle</title><path style="fill:none;stroke:#10ddd6;stroke-linecap:round;stroke-linejoin:round;stroke-width:2" d="m21 5-9 9-4-4"/><path d="M20.94 11a8.26 8.26 0 0 1 .06 1 9 9 0 1 1-9-9 8.83 8.83 0 0 1 4 1" style="fill:none;stroke:#292828;stroke-linecap:round;stroke-linejoin:round;stroke-width:2"/></symbol><symbol fill="currentColor" class="bi bi-check-circle" id="circle-check-bs" viewBox="0 0 16 16"><title>circle-check-bs</title><path d="M8 15A7 7 0 1 1 8 1a7 7 0 0 1 0 14m0 1A8 8 0 1 0 8 0a8 8 0 0 0 0 16"/><path d="m10.97 4.97-.02.022-3.473 4.425-2.093-2.094a.75.75 0 0 0-1.06 1.06L6.97 11.03a.75.75 0 0 0 1.079-.02l3.992-4.99a.75.75 0 0 0-1.071-1.05"/></symbol><symbol id="circle-check" viewBox="0 0 512 512"><title>circle-check</title><!--! Font Awesome Free 6.3.0 by @fontawesome - https://fontawesome.com License - https://fontawesome.com/license/free (Icons: CC BY 4.0, Fonts: SIL OFL 1.1, Code: MIT License) Copyright 2023 Fonticons, Inc.--><path d="M243.8 339.8c-10.9 10.9-28.7 10.9-39.6 0l-64-64c-10.9-10.9-10.9-28.7 0-39.6 10.9-10.9 28.7-10.9 39.6 0l44.2 44.2 108.2-108.2c10.9-10.9 28.7-10.9 39.6 0 10.9 10.9 10.9 28.7 0 39.6l-128 128zM512 256c0 141.4-114.6 256-256 256S0 397.4 0 256 114.6 0 256 0s256 114.6 256 256zM256 48C141.1 48 48 141.1 48 256s93.1 208 208 208 208-93.1 208-208S370.9 48 256 48z"/></symbol><symbol id="close" viewBox="0 0 22.5 22.27"><title>close</title><g data-name="Layer 2"><g data-name="Layer 1"><path d="m.4 2.17 19.44 19.44a1.25 1.25 0 1 0 1.77-1.77L2.17.4A1.18 1.18 0 0 0 .4.4a1.18 1.18 0 0 0 0 1.77Z"/><path class="e976b01e-b823-4a33-afa4-7e423e5efc07" d="M2.66 21.87 22.1 2.43a1.18 1.18 0 0 0 0-1.77 1.18 1.18 0 0 0-1.77 0L.89 20.1a1.18 1.18 0 0 0 0 1.77 1.18 1.18 0 0 0 1.77 0Z"/></g></g></symbol><symbol class="svg u_1020260600" id="envelope" viewBox="17.8 28.2 64.4 43.6"><title>envelope</title><path d="M17.8 28.2v43.6h64.4V28.2H17.8zm59.9 2.1L50 48.8 22.3 30.3h55.4zM19.9 69.7V31.2l30.1 20 30.1-20.1v38.5H19.9z"/></symbol><symbol id="facebook-square" viewBox="0 0 24 28"><title>facebook-square</title><path fill="currentColor" d="M19.5 2q1.859 0 3.18 1.32T24 6.5v15q0 1.859-1.32 3.18T19.5 26h-2.938v-9.297h3.109l.469-3.625h-3.578v-2.312q0-.875.367-1.313t1.43-.438l1.906-.016V5.765q-.984-.141-2.781-.141-2.125 0-3.398 1.25t-1.273 3.531v2.672H9.688v3.625h3.125v9.297H4.5q-1.859 0-3.18-1.32T0 21.499v-15q0-1.859 1.32-3.18t3.18-1.32h15z"/></symbol><symbol id="facebook" viewBox="0 0 320 512"><title>facebook</title><!--! Font Awesome Free 6.3.0 by @fontawesome - https://fontawesome.com License - https://fontawesome.com/license/free (Icons: CC BY 4.0, Fonts: SIL OFL 1.1, Code: MIT License) Copyright 2023 Fonticons, Inc.--><path d="m279.14 288 14.22-92.66h-88.91v-60.13c0-25.35 12.42-50.06 52.24-50.06h40.42V6.26S260.43 0 225.36 0c-73.22 0-121.08 44.38-121.08 124.72v70.62H22.89V288h81.39v224h100.17V288z"/></symbol><symbol id="hamburger" viewBox="0 0 30 20"><title>hamburger</title><g data-name="Layer 2"><path d="M12.5 11.25h16.25A1.18 1.18 0 0 0 30 10a1.18 1.18 0 0 0-1.25-1.25H12.5A1.18 1.18 0 0 0 11.25 10a1.18 1.18 0 0 0 1.25 1.25ZM1.25 2.5h27.5A1.18 1.18 0 0 0 30 1.25 1.18 1.18 0 0 0 28.75 0H1.25A1.18 1.18 0 0 0 0 1.25 1.18 1.18 0 0 0 1.25 2.5Zm0 17.5h27.5a1.25 1.25 0 0 0 0-2.5H1.25a1.25 1.25 0 0 0 0 2.5Z" style="fill:currentColor" data-name="Layer 1"/></g></symbol><symbol id="instagram-square" viewBox="0 0 27 32"><title>instagram-square</title><path fill="currentColor" d="M18.286 16q0-1.893-1.339-3.232t-3.232-1.339-3.232 1.339T9.144 16t1.339 3.232 3.232 1.339 3.232-1.339T18.286 16zm2.464 0q0 2.929-2.054 4.982t-4.982 2.054-4.982-2.054T6.678 16t2.054-4.982 4.982-2.054 4.982 2.054T20.75 16zm1.929-7.321q0 .679-.482 1.161t-1.161.482-1.161-.482-.482-1.161.482-1.161 1.161-.482 1.161.482.482 1.161zM13.714 4.75l-1.366-.009q-1.241-.009-1.884 0t-1.723.054-1.839.179-1.277.33q-.893.357-1.571 1.036T3.018 7.911q-.196.518-.33 1.277t-.179 1.839-.054 1.723 0 1.884T2.464 16t-.009 1.366 0 1.884.054 1.723.179 1.839.33 1.277q.357.893 1.036 1.571t1.571 1.036q.518.196 1.277.33t1.839.179 1.723.054 1.884 0 1.366-.009 1.366.009 1.884 0 1.723-.054 1.839-.179 1.277-.33q.893-.357 1.571-1.036t1.036-1.571q.196-.518.33-1.277t.179-1.839.054-1.723 0-1.884T24.964 16t.009-1.366 0-1.884-.054-1.723-.179-1.839-.33-1.277q-.357-.893-1.036-1.571t-1.571-1.036q-.518-.196-1.277-.33t-1.839-.179-1.723-.054-1.884 0-1.366.009zM27.429 16q0 4.089-.089 5.661-.179 3.714-2.214 5.75t-5.75 2.214q-1.571.089-5.661.089t-5.661-.089q-3.714-.179-5.75-2.214T.09 21.661Q.001 20.09.001 16t.089-5.661q.179-3.714 2.214-5.75t5.75-2.214q1.571-.089 5.661-.089t5.661.089q3.714.179 5.75 2.214t2.214 5.75q.089 1.571.089 5.661z"/></symbol><symbol id="instagram" viewBox="0 0 448 512"><title>instagram</title><!--! Font Awesome Free 6.3.0 by @fontawesome - https://fontawesome.com License - https://fontawesome.com/license/free (Icons: CC BY 4.0, Fonts: SIL OFL 1.1, Code: MIT License) Copyright 2023 Fonticons, Inc.--><path d="M224.1 141c-63.6 0-114.9 51.3-114.9 114.9s51.3 114.9 114.9 114.9S339 319.5 339 255.9 287.7 141 224.1 141zm0 189.6c-41.1 0-74.7-33.5-74.7-74.7s33.5-74.7 74.7-74.7 74.7 33.5 74.7 74.7-33.6 74.7-74.7 74.7zm146.4-194.3c0 14.9-12 26.8-26.8 26.8-14.9 0-26.8-12-26.8-26.8s12-26.8 26.8-26.8 26.8 12 26.8 26.8zm76.1 27.2c-1.7-35.9-9.9-67.7-36.2-93.9-26.2-26.2-58-34.4-93.9-36.2-37-2.1-147.9-2.1-184.9 0-35.8 1.7-67.6 9.9-93.9 36.1s-34.4 58-36.2 93.9c-2.1 37-2.1 147.9 0 184.9 1.7 35.9 9.9 67.7 36.2 93.9s58 34.4 93.9 36.2c37 2.1 147.9 2.1 184.9 0 35.9-1.7 67.7-9.9 93.9-36.2 26.2-26.2 34.4-58 36.2-93.9 2.1-37 2.1-147.8 0-184.8zM398.8 388c-7.8 19.6-22.9 34.7-42.6 42.6-29.5 11.7-99.5 9-132.1 9s-102.7 2.6-132.1-9c-19.6-7.8-34.7-22.9-42.6-42.6-11.7-29.5-9-99.5-9-132.1s-2.6-102.7 9-132.1c7.8-19.6 22.9-34.7 42.6-42.6 29.5-11.7 99.5-9 132.1-9s102.7-2.6 132.1 9c19.6 7.8 34.7 22.9 42.6 42.6 11.7 29.5 9 99.5 9 132.1s2.7 102.7-9 132.1z"/></symbol><symbol id="linkedin-square" viewBox="0 0 24 28"><title>linkedin-square</title><path fill="currentColor" d="M3.703 22.094h3.609V11.25H3.703v10.844zM7.547 7.906q-.016-.812-.562-1.344t-1.453-.531-1.477.531-.57 1.344q0 .797.555 1.336t1.445.539h.016q.922 0 1.484-.539t.562-1.336zm9.141 14.188h3.609v-6.219q0-2.406-1.141-3.641T16.14 11q-2.125 0-3.266 1.828h.031V11.25H9.296q.047 1.031 0 10.844h3.609v-6.062q0-.594.109-.875.234-.547.703-.93t1.156-.383q1.813 0 1.813 2.453v5.797zM24 6.5v15q0 1.859-1.32 3.18T19.5 26h-15q-1.859 0-3.18-1.32T0 21.5v-15q0-1.859 1.32-3.18T4.5 2h15q1.859 0 3.18 1.32T24 6.5z"/></symbol><symbol id="pause" viewBox="0 0 24 28"><title>pause</title><path fill="currentColor" d="M24 3v22c0 .547-.453 1-1 1h-8c-.547 0-1-.453-1-1V3c0-.547.453-1 1-1h8c.547 0 1 .453 1 1zM10 3v22c0 .547-.453 1-1 1H1c-.547 0-1-.453-1-1V3c0-.547.453-1 1-1h8c.547 0 1 .453 1 1z"/></symbol><symbol id="phone-volume" viewBox="0 0 512 512"><title>phone-volume</title><!--! Font Awesome Free 6.3.0 by @fontawesome - https://fontawesome.com License - https://fontawesome.com/license/free (Icons: CC BY 4.0, Fonts: SIL OFL 1.1, Code: MIT License) Copyright 2023 Fonticons, Inc.--><path d="M280 0c128.1 0 232 103.9 232 232 0 13.3-10.7 24-24 24s-24-10.7-24-24c0-101.6-82.4-184-184-184-13.3 0-24-10.7-24-24s10.7-24 24-24zm8 192a32 32 0 1 1 0 64 32 32 0 1 1 0-64zm-32-72c0-13.3 10.7-24 24-24 75.1 0 136 60.9 136 136 0 13.3-10.7 24-24 24s-24-10.7-24-24c0-48.6-39.4-88-88-88-13.3 0-24-10.7-24-24zM117.5 1.4c19.4-5.3 39.7 4.6 47.4 23.2l40 96c6.8 16.3 2.1 35.2-11.6 46.3L144 207.3c33.3 70.4 90.3 127.4 160.7 160.7l40.3-49.3c11.2-13.7 30-18.4 46.3-11.6l96 40c18.6 7.7 28.5 28 23.2 47.4l-24 88C481.8 499.9 466 512 448 512 200.6 512 0 311.4 0 64c0-18 12.1-33.8 29.5-38.6l88-24z"/></symbol><symbol id="phone" viewBox="0 0 512 512"><title>phone</title><!--! Font Awesome Free 6.3.0 by @fontawesome - https://fontawesome.com License - https://fontawesome.com/license/free (Icons: CC BY 4.0, Fonts: SIL OFL 1.1, Code: MIT License) Copyright 2023 Fonticons, Inc.--><path d="M164.9 24.6c-7.7-18.6-28-28.5-47.4-23.2l-88 24C12.1 30.2 0 46 0 64c0 247.4 200.6 448 448 448 18 0 33.8-12.1 38.6-29.5l24-88c5.3-19.4-4.6-39.7-23.2-47.4l-96-40c-16.3-6.8-35.2-2.1-46.3 11.6L304.7 368c-70.4-33.3-127.4-90.3-160.7-160.7l49.3-40.3c13.7-11.2 18.4-30 11.6-46.3l-40-96z"/></symbol><symbol id="pinterest-square" viewBox="0 0 496 512"><title>pinterest-square</title><!--! Font Awesome Free 6.3.0 by @fontawesome - https://fontawesome.com License - https://fontawesome.com/license/free (Icons: CC BY 4.0, Fonts: SIL OFL 1.1, Code: MIT License) Copyright 2023 Fonticons, Inc.--><path d="M496 256c0 137-111 248-248 248-25.6 0-50.2-3.9-73.4-11.1 10.1-16.5 25.2-43.5 30.8-65 3-11.6 15.4-59 15.4-59 8.1 15.4 31.7 28.5 56.8 28.5 74.8 0 128.7-68.8 128.7-154.3 0-81.9-66.9-143.2-152.9-143.2-107 0-163.9 71.8-163.9 150.1 0 36.4 19.4 81.7 50.3 96.1 4.7 2.2 7.2 1.2 8.3-3.3.8-3.4 5-20.3 6.9-28.1.6-2.5.3-4.7-1.7-7.1-10.1-12.5-18.3-35.3-18.3-56.6 0-54.7 41.4-107.6 112-107.6 60.9 0 103.6 41.5 103.6 100.9 0 67.1-33.9 113.6-78 113.6-24.3 0-42.6-20.1-36.7-44.8 7-29.5 20.5-61.3 20.5-82.6 0-19-10.2-34.9-31.4-34.9-24.9 0-44.9 25.7-44.9 60.2 0 22 7.4 36.8 7.4 36.8s-24.5 103.8-29 123.2c-5 21.4-3 51.6-.9 71.2C65.4 450.9 0 361.1 0 256 0 119 111 8 248 8s248 111 248 248z"/></symbol><symbol id="play" viewBox="0 0 22 28"><title>play</title><path fill="currentColor" d="M21.625 14.484.875 26.015c-.484.266-.875.031-.875-.516v-23c0-.547.391-.781.875-.516l20.75 11.531c.484.266.484.703 0 .969z"/></symbol><symbol id="snapchat-square" viewBox="0 0 512 512"><title>snapchat-square</title><!--! Font Awesome Free 6.3.0 by @fontawesome - https://fontawesome.com License - https://fontawesome.com/license/free (Icons: CC BY 4.0, Fonts: SIL OFL 1.1, Code: MIT License) Copyright 2023 Fonticons, Inc.--><path d="M496.926 366.6c-3.373-9.176-9.8-14.086-17.112-18.153a42.714 42.714 0 0 0-3.72-1.947c-2.182-1.128-4.414-2.22-6.634-3.373-22.8-12.09-40.609-27.341-52.959-45.42a102.889 102.889 0 0 1-9.089-16.12c-1.054-3.013-1-4.724-.248-6.287a10.221 10.221 0 0 1 2.914-3.038c3.918-2.591 7.96-5.22 10.7-6.993 4.885-3.162 8.754-5.667 11.246-7.44 9.362-6.547 15.909-13.5 20-21.278a42.371 42.371 0 0 0 2.1-35.191c-6.2-16.318-21.613-26.449-40.287-26.449a55.543 55.543 0 0 0-11.718 1.24 79.072 79.072 0 0 0-3.063.72c.174-11.16-.074-22.94-1.066-34.534-3.522-40.758-17.794-62.123-32.674-79.16A130.167 130.167 0 0 0 332.1 36.443C309.515 23.547 283.91 17 256 17s-53.4 6.547-76 19.443a129.735 129.735 0 0 0-33.281 26.783c-14.88 17.038-29.152 38.44-32.673 79.161-.992 11.594-1.24 23.435-1.079 34.533-1-.26-2.021-.5-3.051-.719a55.461 55.461 0 0 0-11.717-1.24c-18.687 0-34.125 10.131-40.3 26.449a42.423 42.423 0 0 0 2.046 35.228c4.105 7.774 10.652 14.731 20.014 21.278 2.48 1.736 6.361 4.24 11.246 7.44 2.641 1.711 6.5 4.216 10.28 6.72a11.054 11.054 0 0 1 3.3 3.311c.794 1.624.818 3.373-.36 6.6a102.02 102.02 0 0 1-8.94 15.785c-12.077 17.669-29.363 32.648-51.434 44.639C32.355 348.608 20.2 352.75 15.069 366.7c-3.868 10.528-1.339 22.506 8.494 32.6a49.137 49.137 0 0 0 12.4 9.387 134.337 134.337 0 0 0 30.342 12.139 20.024 20.024 0 0 1 6.126 2.741c3.583 3.137 3.075 7.861 7.849 14.78a34.468 34.468 0 0 0 8.977 9.127c10.019 6.919 21.278 7.353 33.207 7.811 10.776.41 22.989.881 36.939 5.481 5.778 1.91 11.78 5.605 18.736 9.92C194.842 480.951 217.707 495 255.973 495s61.292-14.123 78.118-24.428c6.907-4.24 12.872-7.9 18.489-9.758 13.949-4.613 26.163-5.072 36.939-5.481 11.928-.459 23.187-.893 33.206-7.812a34.584 34.584 0 0 0 10.218-11.16c3.434-5.84 3.348-9.919 6.572-12.771a18.971 18.971 0 0 1 5.753-2.629 134.893 134.893 0 0 0 30.752-12.251 48.344 48.344 0 0 0 13.019-10.193l.124-.149c9.226-9.868 11.545-21.501 7.763-31.768Zm-34.013 18.277c-20.745 11.458-34.533 10.23-45.259 17.137-9.114 5.865-3.72 18.513-10.342 23.076-8.134 5.617-32.177-.4-63.239 9.858-25.618 8.469-41.961 32.822-88.038 32.822s-62.036-24.3-88.076-32.884c-31-10.255-55.092-4.241-63.239-9.858-6.609-4.563-1.24-17.211-10.341-23.076-10.739-6.907-24.527-5.679-45.26-17.075-13.206-7.291-5.716-11.8-1.314-13.937 75.143-36.381 87.133-92.552 87.666-96.719.645-5.046 1.364-9.014-4.191-14.148-5.369-4.96-29.189-19.7-35.8-24.316-10.937-7.638-15.748-15.264-12.2-24.638 2.48-6.485 8.531-8.928 14.879-8.928a27.643 27.643 0 0 1 5.965.67c12 2.6 23.659 8.617 30.392 10.242a10.749 10.749 0 0 0 2.48.335c3.6 0 4.86-1.811 4.612-5.927-.768-13.132-2.628-38.725-.558-62.644 2.84-32.909 13.442-49.215 26.04-63.636 6.051-6.932 34.484-36.976 88.857-36.976s82.88 29.92 88.931 36.827c12.611 14.421 23.225 30.727 26.04 63.636 2.071 23.919.285 49.525-.558 62.644-.285 4.327 1.017 5.927 4.613 5.927a10.648 10.648 0 0 0 2.48-.335c6.745-1.624 18.4-7.638 30.4-10.242a27.641 27.641 0 0 1 5.964-.67c6.386 0 12.4 2.48 14.88 8.928 3.546 9.374-1.24 17-12.189 24.639-6.609 4.612-30.429 19.343-35.8 24.315-5.568 5.134-4.836 9.1-4.191 14.149.533 4.228 12.511 60.4 87.666 96.718 4.446 2.22 11.936 6.733-1.27 14.086Z"/></symbol><symbol id="tiktok-square" viewBox="0 0 448 512"><title>tiktok-square</title><!--! Font Awesome Free 6.3.0 by @fontawesome - https://fontawesome.com License - https://fontawesome.com/license/free (Icons: CC BY 4.0, Fonts: SIL OFL 1.1, Code: MIT License) Copyright 2023 Fonticons, Inc.--><path d="M448 209.91a210.06 210.06 0 0 1-122.77-39.25v178.72A162.55 162.55 0 1 1 185 188.31v89.89a74.62 74.62 0 1 0 52.23 71.18V0h88a121.18 121.18 0 0 0 1.86 22.17A122.18 122.18 0 0 0 381 102.39a121.43 121.43 0 0 0 67 20.14Z"/></symbol><symbol id="tiktok" viewBox="0 0 448 512"><title>tiktok</title><!--! Font Awesome Free 6.3.0 by @fontawesome - https://fontawesome.com License - https://fontawesome.com/license/free (Icons: CC BY 4.0, Fonts: SIL OFL 1.1, Code: MIT License) Copyright 2023 Fonticons, Inc.--><path d="M448 209.91a210.06 210.06 0 0 1-122.77-39.25v178.72A162.55 162.55 0 1 1 185 188.31v89.89a74.62 74.62 0 1 0 52.23 71.18V0h88a121.18 121.18 0 0 0 1.86 22.17A122.18 122.18 0 0 0 381 102.39a121.43 121.43 0 0 0 67 20.14Z"/></symbol><symbol id="twitter-square" viewBox="0 0 24 28"><title>twitter-square</title><path fill="currentColor" d="M20 9.531q-.875.391-1.891.531 1.062-.625 1.453-1.828-1.016.594-2.094.797Q16.515 8 15.077 8q-1.359 0-2.32.961t-.961 2.32q0 .453.078.75-2.016-.109-3.781-1.016t-3-2.422q-.453.781-.453 1.656 0 1.781 1.422 2.734-.734-.016-1.563-.406v.031q0 1.172.781 2.086t1.922 1.133q-.453.125-.797.125-.203 0-.609-.063.328.984 1.164 1.625t1.898.656q-1.813 1.406-4.078 1.406-.406 0-.781-.047 2.312 1.469 5.031 1.469 1.75 0 3.281-.555t2.625-1.484 1.883-2.141 1.172-2.531.383-2.633q0-.281-.016-.422.984-.703 1.641-1.703zM24 6.5v15q0 1.859-1.32 3.18T19.5 26h-15q-1.859 0-3.18-1.32T0 21.5v-15q0-1.859 1.32-3.18T4.5 2h15q1.859 0 3.18 1.32T24 6.5z"/></symbol><symbol id="youtube-square" viewBox="0 0 576 512"><title>youtube-square</title><!--! Font Awesome Free 6.3.0 by @fontawesome - https://fontawesome.com License - https://fontawesome.com/license/free (Icons: CC BY 4.0, Fonts: SIL OFL 1.1, Code: MIT License) Copyright 2023 Fonticons, Inc.--><path d="M549.655 124.083c-6.281-23.65-24.787-42.276-48.284-48.597C458.781 64 288 64 288 64S117.22 64 74.629 75.486c-23.497 6.322-42.003 24.947-48.284 48.597-11.412 42.867-11.412 132.305-11.412 132.305s0 89.438 11.412 132.305c6.281 23.65 24.787 41.5 48.284 47.821C117.22 448 288 448 288 448s170.78 0 213.371-11.486c23.497-6.321 42.003-24.171 48.284-47.821 11.412-42.867 11.412-132.305 11.412-132.305s0-89.438-11.412-132.305zm-317.51 213.508V175.185l142.739 81.205-142.739 81.201z"/></symbol></svg>